inDegrees=no
num_controls=7
num_derivatives=13
num_iterations=198
num_multipliers=7
num_parameters=0
num_slacks=7
num_states=26
objective=0.495007
objective_accelerations=0.046654
objective_balance=0.004685
objective_effort=0.039570
objective_height=0.293194
objective_ligament=0.110904
solver_duration=2785.191240
status=Solve_Succeeded
success=true
DataType=double
version=3
OpenSimVersion=4.5
endheader
time	/jointset/ground_pelvis/pelvis_tilt/value	/jointset/ground_pelvis/pelvis_tx/value	/jointset/ground_pelvis/pelvis_ty/value	/jointset/hip_l/hip_flexion_l/value	/jointset/hip_l/hip_adduction_l/value	/jointset/hip_l/hip_rotation_l/value	/jointset/back/lumbar_extension/value	/jointset/patellofemoral_l/patellar_flexion_l/value	/jointset/knee_l/knee_flexion_l/value	/jointset/knee_l/knee_adduction_l/value	/jointset/knee_l/knee_rotation_l/value	/jointset/ankle_l/ankle_angle_l/value	/jointset/subtalar_l/subtalar_angle_l/value	/jointset/ground_pelvis/pelvis_tilt/speed	/jointset/ground_pelvis/pelvis_tx/speed	/jointset/ground_pelvis/pelvis_ty/speed	/jointset/hip_l/hip_flexion_l/speed	/jointset/hip_l/hip_adduction_l/speed	/jointset/hip_l/hip_rotation_l/speed	/jointset/back/lumbar_extension/speed	/jointset/patellofemoral_l/patellar_flexion_l/speed	/jointset/knee_l/knee_flexion_l/speed	/jointset/knee_l/knee_adduction_l/speed	/jointset/knee_l/knee_rotation_l/speed	/jointset/ankle_l/ankle_angle_l/speed	/jointset/subtalar_l/subtalar_angle_l/speed	/forceset/tau_hip_flexion_l	/forceset/tau_hip_adduction_l	/forceset/tau_hip_rotation_l	/forceset/tau_knee_flexion_l	/forceset/tau_ankle_angle_l	/forceset/tau_subtalar_angle_l	/forceset/tau_lumbar_extension	lambda_cid13_p0	lambda_cid13_p1	lambda_cid13_p2	lambda_cid13_p3	lambda_cid13_p4	lambda_cid13_p5	lambda_cid14_p0	/jointset/ground_pelvis/pelvis_tilt/accel	/jointset/ground_pelvis/pelvis_tx/accel	/jointset/ground_pelvis/pelvis_ty/accel	/jointset/hip_l/hip_flexion_l/accel	/jointset/hip_l/hip_adduction_l/accel	/jointset/hip_l/hip_rotation_l/accel	/jointset/back/lumbar_extension/accel	/jointset/patellofemoral_l/patellar_flexion_l/accel	/jointset/knee_l/knee_flexion_l/accel	/jointset/knee_l/knee_adduction_l/accel	/jointset/knee_l/knee_rotation_l/accel	/jointset/ankle_l/ankle_angle_l/accel	/jointset/subtalar_l/subtalar_angle_l/accel	gamma_cid13_p0	gamma_cid13_p1	gamma_cid13_p2	gamma_cid13_p3	gamma_cid13_p4	gamma_cid13_p5	gamma_cid14_p0
1	-0.3179798321495172	-0.1270904449722544	0.6201239559540432	1.697253139038313	-0.324530845055316	0.1016196442212418	-0.9599062260749328	1.395123803254373	1.395123803254349	-0.09436288114705332	-0.1745307015382032	0.1054174092482365	0.0008271096404867107	0.1017024572255603	0.01652029626773099	0.07550883439544057	-0.2933841312812527	-0.009187366027154337	-0.06647348438762558	3.050602945504794e-05	-0.16001941063355	-0.1600194106335479	-0.001023599975708637	-6.326499517023994e-05	0.02290458642473179	-0.001210484462706432	-0.5268197586440183	0.002536449134664894	0.001059098257604718	-0.2811368713295802	0.1233302803541292	0.01779609417532393	0.5004975004930845	-14.01043267491969	-4.515594134201098	-0.6026429741874841	10.97386348116282	-822.1083951016561	-45.86519771276219	-0.04134110828476483	1.593196671327909	0.1084429916158156	1.834781159299658	-6.428990863555869	-0.2361957771469627	-2.14543318683002	-0.02827565815506197	-4.907908050055338	-4.907908050055228	0.1165936459956165	-0.01645225424509497	-0.3796026796882474	-0.364833170914952	-1.096689706869494e-08	9.136025451804411e-10	7.691631687352105e-08	6.500466881140241e-09	-2.693936316266719e-08	1.421780345707669e-07	-2.11269108024104e-08
1.01	-0.3168836995903614	-0.1269198247826239	0.6209705656028848	1.693998860109624	-0.3246333240614328	0.1008469509409654	-0.9599066746383635	1.39327833157344	1.393278331573426	-0.09436508114601788	-0.1745307395886428	0.1056274227789849	0.000798096633239548	0.1175283777881734	0.01760812623148002	0.09380174809096682	-0.3574515597947317	-0.01127829318963932	-0.08804430894748888	-0.0001208765243436182	-0.2090754683850141	-0.2090754683849937	0.0005939378021594899	8.333176019035171e-05	0.0190766662519595	-0.004566395677445274	-0.525793954574686	0.002782117107908582	0.001005434960199254	-0.2811960001173225	0.123291666097792	0.01800632419534321	0.4999676072848452	-13.98208101042509	-4.615520925347262	-0.5825317408839217	10.90243735752535	-821.6161715810277	-46.03615380998569	-0.04138911133900109	1.57793559867945	0.1096126283323216	1.82483765468809	-6.392608149091204	-0.1910280982288866	-2.159798845577228	-0.008668225455334768	-4.904530405778295	-4.90453040577555	0.1858708790036779	0.03439333975538987	-0.3876038637069966	-0.3171234546477869	-1.597980234214341e-08	-5.032324744272148e-09	1.05080174054776e-07	9.685955498672832e-09	-3.35715182857359e-08	1.754608338211517e-07	-2.821207302552275e-08
1.02	-0.3156291786555896	-0.1267381943674405	0.6219997626246835	1.69010450903503	-0.3247558097216605	0.09985917106409188	-0.9599086567616167	1.390942284161376	1.39094228416137	-0.09435079836013717	-0.1745284761316854	0.1057985136724784	0.0007362938422661394	0.1333801323488446	0.01872234137832826	0.1120263089868472	-0.4213985604621032	-0.01318869684931097	-0.1094908037078598	-0.0002762059366650152	-0.2581345568599317	-0.2581345568598905	0.002272956992877379	0.0003970364887002226	0.01512005897377622	-0.00776844120796153	-0.5247681505053504	0.003027785081157035	0.0009517716627879405	-0.2812551289050652	0.1232530518414554	0.0182165542153681	0.4994377140766093	-13.96041299310544	-4.712596453993907	-0.5647949605618623	10.85890712529333	-821.2164262580603	-46.17429919323733	-0.04142889254136874	1.598363470939526	0.1137200282356509	1.821110599370468	-6.404905294334381	-0.2000910765842857	-2.120567226931528	-0.02906502985962033	-4.908514194746038	-4.908514194745409	0.1288899285655739	0.01696934038477391	-0.4053401007704566	-0.3340600340704297	-2.063533917493193e-08	-1.156023425496547e-08	1.316703527345618e-07	1.184042769515698e-08	-3.985060026824393e-08	2.071890355824735e-07	-3.514369965161049e-08
1.03	-0.3142159049945326	-0.1265452500769246	0.6232108072818843	1.685571330078882	-0.3248964024366343	0.09865769449728677	-0.9599121387026447	1.388115745941305	1.388115745941285	-0.09431942894167672	-0.1745221886459353	0.1059293826757803	0.0006433413496536171	0.1492886946393001	0.01987472763202316	0.1301657791899805	-0.4852130655043403	-0.01488890668927082	-0.1307718569513192	-0.0004128778818327302	-0.3071631260181807	-0.3071631260181887	0.004014482029490981	0.0008952980782789002	0.01103119368562464	-0.01078462973444654	-0.5236252429940609	0.003385924865126583	0.0008666696697683556	-0.281091307423987	0.123141992169844	0.01854007822839798	0.49891375142976	-13.94154819139776	-4.862444357060317	-0.5340079891883918	10.74578986659505	-820.6020803835195	-46.38358860393981	-0.04149311889286632	1.589213030466144	0.1172323698712389	1.80782947802983	-6.366103328415958	-0.148858561424671	-2.127008188157119	-0.004872618825877059	-4.898525649207009	-4.898525649214829	0.1987967404267487	0.07151911801874225	-0.4140411812903091	-0.2797998669845186	-2.528722939097903e-08	-1.809408235975308e-08	1.58244473470455e-07	1.398437931591615e-08	-4.612607946360338e-08	2.389013741041109e-07	-4.207375958793267e-08
1.04	-0.3126431236260981	-0.1263405350346848	0.6246027394905657	1.680400730028461	-0.3250527717747525	0.09724438063503101	-0.9599167682315111	1.384799222555084	1.384799222555047	-0.0942702416830041	-0.1745098656343359	0.10601868673851	0.0005213466507668725	0.1652816738244597	0.02107649172309556	0.1482038192829111	-0.548882779316482	-0.0163440214781461	-0.1518582627989351	-0.0005057235062214067	-0.3561315900901365	-0.3561315900901984	0.005836525034803448	0.00160414165882966	0.006807070859361242	-0.01357688246281087	-0.522482335482769	0.003744064649101222	0.0007815676767402802	-0.280927485942909	0.1230309324982336	0.01886360224143399	0.4983897887829131	-13.92969097092755	-5.009280913392009	-0.5057390624616496	10.66203731469946	-820.0842216235111	-46.56219774531988	-0.04154871768285159	1.615246849880386	0.1235955957111453	1.800824577329923	-6.375947048315302	-0.1510720663673727	-2.08163774776281	-0.02029976570378006	-4.896493177487401	-4.896493177487717	0.1449935223053485	0.05908573857918557	-0.4323916083928268	-0.2892728744462993	-3.01175882170712e-08	-2.608709328452735e-08	1.814019436263835e-07	1.625003723637906e-08	-5.255680225375193e-08	2.670732753895537e-07	-4.857394475257714e-08
1.05	-0.3109099030995587	-0.1261235166364087	0.6261744964238495	1.674594181846655	-0.3252224454947664	0.09562126542107999	-0.9599220256221684	1.380993390575437	1.380993390575414	-0.0942024875772119	-0.1744894656127504	0.1060650390082461	0.000372561707408826	0.1813846076103164	0.02233913750015036	0.1661260736124318	-0.6124006162958688	-0.01754604732081014	-0.1727277035593159	-0.0005298950381608873	-0.4050184978461518	-0.4050184978462259	0.007728231976785997	0.00250645399531277	0.00243771303086348	-0.01613949277562261	-0.5212221932063993	0.00420263422057156	0.0006656785773626534	-0.2805634225487675	0.1228721111029976	0.01929412239856176	0.4978754271156097	-13.91445365226497	-5.206773461625525	-0.4652872116168652	10.50746079060275	-819.373587662348	-46.81092521078967	-0.04162670551799286	1.611138166051567	0.129395230720604	1.784689933067693	-6.335772369768851	-0.09808419177015736	-2.084077853947407	0.008903091178959627	-4.882332298028918	-4.882332298030553	0.2133224347933153	0.1104428193978864	-0.4430580664672301	-0.2336816760296822	-3.495352418722728e-08	-3.41257030474262e-08	2.044526434516882e-07	1.851949847870771e-08	-5.899237640623764e-08	2.951345380113653e-07	-5.506069633060669e-08
